<?xml version="1.0" standalone="no"?>
<!DOCTYPE svg PUBLIC "-//W3C//DTD SVG 20010904//EN"
 "http://www.w3.org/TR/2001/REC-SVG-20010904/DTD/svg10.dtd">
<svg version="1.0" xmlns="http://www.w3.org/2000/svg"
 width="468.000000pt" height="468.000000pt" viewBox="0 0 468.000000 468.000000"
 preserveAspectRatio="xMidYMid meet">
<metadata>
Created by potrace 1.14, written by Peter Selinger 2001-2017
</metadata>
<g transform="translate(0.000000,468.000000) scale(0.100000,-0.100000)"
fill="#000000" stroke="none">
<path d="M2338 4444 c6 -3 12 -12 12 -20 0 -8 8 -14 17 -14 9 0 13 -3 9 -7
-14 -14 -47 -13 -71 3 -16 10 -34 14 -48 10 -12 -4 -35 -9 -52 -12 -24 -4 -27
-2 -15 6 12 9 10 10 -9 4 -13 -3 -47 -8 -75 -9 -28 -2 -70 -7 -93 -10 -37 -7
-41 -10 -33 -26 6 -10 10 -20 10 -23 0 -10 -18 -6 -32 7 -7 6 -24 13 -38 14
-22 3 -23 2 -5 -6 11 -5 27 -21 35 -35 12 -24 12 -28 0 -36 -8 -5 -17 -7 -19
-4 -3 3 1 9 9 14 9 5 -3 8 -33 8 -26 0 -47 -1 -47 -3 0 -2 24 -15 54 -29 46
-22 69 -26 140 -26 51 0 86 -4 86 -10 0 -5 6 -10 14 -10 8 0 17 -4 20 -8 3 -5
-27 -3 -67 4 -40 7 -102 13 -139 13 -45 1 -71 6 -82 16 -16 16 -61 21 -51 6 3
-5 -3 -11 -12 -14 -13 -3 -9 -6 12 -11 17 -4 40 -12 52 -18 l22 -11 -22 -17
c-19 -14 -34 -15 -112 -7 -85 9 -94 8 -165 -17 -44 -16 -87 -39 -105 -56 -16
-17 -24 -30 -18 -30 7 0 15 5 18 10 3 6 11 10 17 10 6 0 -1 -9 -16 -21 -14
-11 -24 -25 -21 -30 8 -11 -42 -54 -63 -54 -10 0 -16 -7 -14 -17 1 -8 -12 -31
-30 -49 -18 -19 -33 -43 -33 -54 0 -11 -7 -20 -15 -20 -16 0 -39 -23 -40 -39
0 -5 8 -2 18 7 31 28 32 20 8 -45 -13 -35 -27 -97 -30 -138 -4 -41 -9 -97 -11
-124 -4 -34 -1 -56 10 -72 8 -13 15 -45 15 -73 0 -27 4 -52 9 -55 5 -4 12 -25
16 -47 4 -23 11 -37 16 -32 14 14 106 205 138 288 18 47 52 107 81 144 74 95
188 211 221 224 10 4 7 11 -11 26 -27 22 -17 27 25 11 20 -7 40 -5 88 12 34
11 71 27 82 35 11 7 38 18 60 24 22 6 43 16 47 22 3 6 28 12 55 13 26 0 70 6
97 12 26 5 89 8 140 6 50 -2 125 -5 166 -7 50 -1 79 -7 86 -16 6 -8 18 -11 27
-8 9 3 19 2 22 -3 4 -6 15 -10 26 -10 10 0 19 -4 19 -10 0 -5 11 -10 25 -10
33 0 98 -26 285 -113 25 -12 54 -29 65 -38 11 -10 40 -23 65 -29 53 -14 117
-57 155 -102 14 -18 33 -41 41 -51 8 -9 14 -22 14 -28 0 -6 11 -25 25 -43 14
-18 25 -38 25 -44 0 -6 11 -19 25 -30 22 -17 23 -22 11 -34 -12 -13 -7 -22 34
-69 26 -30 49 -58 50 -64 2 -5 14 -25 28 -43 36 -47 22 -48 -22 -2 -53 56 -71
53 -40 -7 13 -27 24 -54 24 -61 0 -7 7 -15 15 -18 8 -4 15 -12 15 -20 0 -7 8
-19 18 -26 10 -7 27 -26 36 -43 l18 -30 -23 25 c-28 30 -79 55 -79 39 0 -16
20 -51 44 -78 14 -16 17 -25 9 -28 -21 -7 27 -63 54 -63 13 0 23 -4 23 -10 0
-5 -12 -10 -27 -10 -21 0 -24 -3 -13 -9 8 -6 18 -7 22 -5 4 3 8 -2 8 -10 0 -9
7 -16 15 -16 31 0 84 -78 61 -92 -12 -8 -56 0 -70 13 -6 5 -20 9 -33 9 -13 0
-23 5 -23 11 0 6 -13 26 -28 43 -22 26 -31 30 -40 20 -8 -9 -9 -15 -1 -20 6
-3 8 -17 5 -30 -5 -19 -2 -24 14 -24 12 0 25 -10 32 -25 6 -13 20 -27 30 -31
29 -9 16 -28 -23 -35 -27 -4 -31 -7 -16 -14 11 -4 28 -2 43 5 22 12 27 11 52
-13 16 -15 36 -27 45 -27 9 0 17 -7 17 -15 0 -8 7 -15 15 -15 8 0 15 5 15 10
0 6 21 16 46 22 38 11 44 15 39 33 -3 11 -9 37 -12 58 -3 21 -10 40 -14 43 -5
3 -9 10 -9 16 0 6 11 1 24 -11 20 -19 27 -21 46 -11 16 8 21 18 17 36 -2 13 0
25 6 27 9 3 -7 45 -22 57 -10 8 -31 60 -24 60 4 0 15 -8 26 -17 19 -17 20 -17
15 9 -3 15 -1 29 5 31 12 4 -40 162 -59 178 -16 13 -18 29 -4 29 6 0 10 -7 10
-15 0 -8 7 -15 16 -15 13 0 15 6 9 33 -4 17 -11 52 -16 77 -13 76 -21 100 -45
148 l-23 46 4 -60 c2 -32 6 -80 9 -106 11 -84 -37 -44 -50 42 -4 25 -15 62
-26 83 -11 22 -17 45 -14 53 3 8 1 14 -5 14 -6 0 -8 11 -5 28 5 25 -20 72 -38
72 -15 0 -45 41 -56 76 -7 22 -27 53 -46 71 -19 18 -34 39 -34 47 0 20 -106
133 -141 152 -15 7 -34 11 -42 8 -8 -3 -23 6 -34 20 -11 14 -23 22 -27 19 -3
-3 -6 -1 -6 5 0 6 -12 12 -26 14 -15 2 -34 14 -42 27 -16 23 -16 23 8 16 14
-4 39 -13 55 -20 36 -16 67 -16 62 -1 -3 6 -10 10 -16 9 -12 -3 -51 32 -51 46
0 10 -70 71 -82 71 -3 0 -36 14 -71 30 -36 17 -74 30 -85 30 -11 0 -26 10 -34
23 -12 18 -24 22 -62 21 -26 0 -49 3 -52 8 -3 4 -18 8 -35 8 -16 0 -29 5 -29
10 0 6 -7 10 -15 10 -17 0 -52 18 -73 38 -17 15 -46 16 -36 1 5 -8 -6 -9 -37
-4 -24 5 -53 9 -65 10 -11 2 -46 8 -77 15 -31 6 -62 10 -69 9 -7 -1 -26 1 -43
5 -48 12 -71 16 -57 10z m-86 -206 c-8 -8 -23 -8 -54 -1 l-43 11 55 1 c41 1
51 -2 42 -11z m-327 -58 c13 -6 15 -9 5 -9 -8 0 -22 4 -30 9 -18 12 -2 12 25
0z m51 1 c5 -5 18 -11 29 -13 19 -5 19 -5 2 -13 -13 -5 -24 -1 -38 14 -19 20
-13 31 7 12z m1144 -22 c0 -5 -4 -9 -10 -9 -5 0 -10 7 -10 16 0 8 5 12 10 9 6
-3 10 -10 10 -16z m75 -19 c3 -5 -1 -10 -9 -10 -9 0 -16 5 -16 10 0 6 4 10 9
10 6 0 13 -4 16 -10z m-13 -74 c34 -7 126 -57 147 -80 30 -32 21 -46 -11 -16
-13 12 -57 38 -98 58 -41 20 -78 40 -82 46 -12 18 5 29 18 12 7 -10 18 -19 26
-20z m-1377 -6 c27 -7 28 -8 5 -8 -14 0 -45 3 -70 7 l-45 8 40 1 c22 0 54 -4
70 -8z m-109 -78 c-4 -3 -14 2 -24 12 -16 18 -16 18 6 6 13 -6 21 -14 18 -18z
m1734 -63 c0 -6 -4 -7 -10 -4 -5 3 -10 11 -10 16 0 6 5 7 10 4 6 -3 10 -11 10
-16z m-1980 -3 c0 -3 -4 -8 -10 -11 -5 -3 -10 -1 -10 4 0 6 5 11 10 11 6 0 10
-2 10 -4z m1970 -31 c13 -14 21 -25 18 -25 -2 0 -15 11 -28 25 -13 14 -21 25
-18 25 2 0 15 -11 28 -25z m65 -45 c17 -33 19 -44 6 -35 -15 8 -41 65 -30 65
4 0 15 -13 24 -30z m-2145 -265 c-6 -15 -13 -25 -17 -22 -3 4 0 21 8 38 16 39
24 24 9 -16z m2418 -298 c6 -6 14 -26 17 -42 7 -26 6 -28 -7 -15 -19 20 -40
70 -29 70 5 0 13 -6 19 -13z m-128 -98 c0 -6 -4 -7 -10 -4 -5 3 -10 11 -10 16
0 6 5 7 10 4 6 -3 10 -11 10 -16z m44 -85 c10 -25 -1 -29 -14 -5 -6 12 -7 21
-1 21 5 0 12 -7 15 -16z m19 -98 c10 -8 14 -17 9 -20 -4 -3 -16 4 -25 15 -19
22 -10 25 16 5z m37 -77 c0 -5 -4 -9 -10 -9 -5 0 -10 7 -10 16 0 8 5 12 10 9
6 -3 10 -10 10 -16z m-46 -120 c-3 -5 -17 -9 -31 -9 -25 0 -26 0 -8 20 14 15
21 17 31 9 8 -6 11 -15 8 -20z"/>
<path d="M1740 4283 c-25 -15 -25 -15 9 -9 18 3 45 6 60 6 20 0 23 2 11 10
-21 13 -50 11 -80 -7z"/>
<path d="M1715 4233 c-60 -9 -45 -21 29 -25 42 -2 76 0 76 4 0 6 -58 29 -69
27 -3 -1 -19 -4 -36 -6z"/>
<path d="M3340 4104 c0 -3 18 -24 40 -46 23 -24 40 -34 40 -26 0 8 -12 26 -28
39 -34 31 -52 42 -52 33z"/>
<path d="M1420 4042 c-40 -32 -89 -83 -90 -95 0 -5 5 -5 10 -2 15 9 12 -11 -3
-24 -8 -6 -17 -8 -21 -4 -4 4 -4 0 0 -10 5 -14 12 -10 44 25 22 26 34 46 27
50 -6 3 9 23 34 47 51 47 50 53 -1 13z"/>
<path d="M3620 3761 c5 -11 10 -28 10 -37 0 -18 47 -74 62 -74 4 0 -11 29 -33
65 -39 61 -62 89 -39 46z"/>
<path d="M3556 3002 c-3 -6 -1 -14 5 -17 15 -10 25 3 12 16 -7 7 -13 7 -17 1z"/>
<path d="M2715 2960 c-112 -8 -233 -29 -376 -65 -154 -39 -263 -48 -429 -34
-128 10 -356 6 -369 -6 -2 -3 49 -5 115 -5 149 0 291 -16 322 -36 19 -13 40
-13 148 -4 69 7 134 10 145 7 12 -3 19 0 19 9 0 47 329 114 565 114 63 0 115
4 115 9 0 21 -68 24 -255 11z"/>
<path d="M3166 2885 c14 -22 23 -25 79 -25 61 0 62 0 57 25 -5 28 -21 34 -18
8 1 -15 -8 -18 -48 -18 -29 -1 -50 4 -53 11 -2 7 -11 15 -19 18 -11 4 -11 0 2
-19z"/>
<path d="M1380 2835 c-69 -13 -209 -60 -235 -79 -12 -9 -14 -20 -9 -40 5 -22
11 -27 28 -22 11 3 31 6 43 6 15 0 23 7 25 22 6 42 108 89 253 116 l50 10 -45
0 c-25 -1 -74 -6 -110 -13z"/>
<path d="M3861 2831 c-8 -6 -9 -11 -3 -15 6 -3 14 -1 17 5 9 14 2 20 -14 10z"/>
<path d="M2766 2755 c-14 -22 -15 -29 -4 -53 14 -28 43 -38 84 -28 29 8 32 26
4 26 -11 0 -20 4 -20 9 0 5 -3 16 -6 25 -4 11 -1 16 10 16 9 0 15 -3 14 -7 -4
-12 5 -15 26 -7 15 6 13 9 -15 21 -18 7 -40 11 -48 8 -8 -3 -17 -1 -21 5 -4 7
-13 1 -24 -15z m44 -25 c0 -5 -4 -10 -9 -10 -6 0 -13 5 -16 10 -3 6 1 10 9 10
9 0 16 -4 16 -10z"/>
<path d="M3005 2765 c11 -9 29 -21 40 -26 l20 -10 -20 16 c-11 9 -29 21 -40
26 l-20 10 20 -16z"/>
<path d="M1257 2733 c-11 -10 -8 -35 3 -28 6 4 7 -1 3 -11 -5 -13 -3 -16 10
-11 10 4 28 -3 44 -17 29 -24 93 -50 101 -41 8 8 -19 35 -35 35 -9 0 -13 6
-10 14 4 10 -8 20 -41 32 -26 10 -52 21 -58 26 -6 4 -14 5 -17 1z"/>
<path d="M2704 2704 c3 -9 6 -20 6 -25 0 -5 10 -9 23 -9 20 1 20 2 5 11 -10 5
-18 17 -18 24 0 8 -5 15 -11 15 -6 0 -8 -7 -5 -16z"/>
<path d="M2950 2700 c19 -13 30 -13 30 0 0 6 -10 10 -22 10 -19 0 -20 -2 -8
-10z"/>
<path d="M1712 2677 c-6 -7 -9 -23 -5 -36 7 -27 46 -26 51 3 3 11 0 16 -7 12
-20 -13 -33 5 -14 20 16 12 16 13 2 14 -9 0 -21 -6 -27 -13z"/>
<path d="M2020 2659 c0 -5 5 -7 10 -4 6 3 10 8 10 11 0 2 -4 4 -10 4 -5 0 -10
-5 -10 -11z"/>
<path d="M2300 2576 c0 -2 15 -22 33 -44 17 -22 49 -65 70 -96 21 -31 43 -56
48 -56 6 0 -5 19 -24 43 -18 23 -44 59 -56 80 -13 20 -26 37 -31 37 -5 0 -12
9 -15 20 -5 17 -25 29 -25 16z"/>
<path d="M2380 2570 c0 -6 7 -10 15 -10 8 0 15 2 15 4 0 2 -7 6 -15 10 -8 3
-15 1 -15 -4z"/>
<path d="M3690 2418 c0 -18 18 -34 28 -24 3 4 -2 14 -11 23 -16 16 -17 16 -17
1z"/>
<path d="M1941 2378 c-10 -30 -9 -31 4 -14 8 11 15 26 15 33 0 22 -8 14 -19
-19z"/>
<path d="M2548 2323 c6 -2 18 -2 25 0 6 3 1 5 -13 5 -14 0 -19 -2 -12 -5z"/>
<path d="M2818 2323 c7 -3 16 -2 19 1 4 3 -2 6 -13 5 -11 0 -14 -3 -6 -6z"/>
<path d="M2638 2313 c12 -2 30 -2 40 0 9 3 -1 5 -23 4 -22 0 -30 -2 -17 -4z"/>
<path d="M2324 2044 c-18 -15 -18 -15 6 -10 14 3 35 6 48 6 12 0 22 5 22 10 0
16 -54 12 -76 -6z"/>
<path d="M2635 1691 c-11 -5 -43 -11 -72 -15 -29 -4 -67 -13 -85 -22 l-33 -15
50 6 c28 4 82 11 120 16 39 5 93 10 120 11 l50 1 -30 13 c-34 15 -90 17 -120
5z"/>
<path d="M1900 1630 c0 -13 11 -13 30 0 12 8 11 10 -7 10 -13 0 -23 -4 -23
-10z"/>
<path d="M2320 1629 c-14 -6 -75 -9 -137 -7 -61 2 -115 0 -119 -4 -4 -5 18 -9
49 -9 32 -1 76 -2 100 -3 49 -3 204 18 214 27 10 11 -79 7 -107 -4z"/>
<path d="M3674 1144 c4 -38 8 -132 8 -209 1 -125 -3 -153 -29 -255 -54 -204
-218 -512 -346 -647 l-31 -33 702 0 702 0 0 138 -1 137 -77 66 c-42 36 -103
83 -134 103 -52 33 -305 161 -388 196 -39 17 -68 64 -145 239 -26 57 -60 124
-76 147 -32 48 -117 134 -163 167 l-28 20 6 -69z"/>
<path d="M1771 717 c-38 -51 -81 -98 -94 -104 -56 -26 -440 -136 -687 -198
-146 -36 -287 -73 -315 -82 -71 -22 -180 -78 -250 -128 -57 -41 -205 -184
-205 -198 0 -4 414 -7 920 -7 506 0 920 2 920 5 0 3 -15 36 -34 73 -51 102
-65 151 -77 279 -21 223 -46 361 -74 409 -14 24 -28 44 -30 44 -2 0 -35 -42
-74 -93z"/>
</g>
</svg>
